# xmcd CD database file
#
# Track frame offsets:
#	150
#	16695
#	31222
#	46995
#	59882
#	73790
#	88285
#	103430
#	119250
#	135845
#	149575
#
# Disc length: 2333 seconds
#
# Revision: 0
# Processed by: cddbd v1.4b42PL0 Copyright (c) Steve Scherf et al.
# Submitted via: CDex 1.40Beta5
#
DISCID=a2091b0b
DTITLE=Randy Lee Ashcraft - Randy Lee Ashcraft
DYEAR=1995
DGENRE=Country
TTITLE0=Down To Mexico
TTITLE1=Gotta Like That
TTITLE2=Muscle In His Arm
TTITLE3=(Tired Of These) Working Man Blues
TTITLE4=Pony Penning Time
TTITLE5=Mailbox Money
TTITLE6=Let The Dance Begin
TTITLE7=Ridin' On
TTITLE8=Changes
TTITLE9=Good For Nothin'
TTITLE10=Shore Thing
EXTD=YEAR: 1995 ID3G:   2
EXTT0=
EXTT1=
EXTT2=
EXTT3=
EXTT4=
EXTT5=
EXTT6=
EXTT7=
EXTT8=
EXTT9=
EXTT10=
PLAYORDER=
